<svg xmlns="http://www.w3.org/2000/svg" width="1920" height="10800"><path d="M559,1309L386,1314L777,1328Z" fill="#6e91a4" stroke="#6e91a4" stroke-width="1.51"/><path d="M386,1314L-40,1333L777,1328Z" fill="#7a94a8" stroke="#7a94a8" stroke-width="1.51"/><path d="M777,1328L-40,1333L1066,1344Z" fill="#6c8fa1" stroke="#6c8fa1" stroke-width="1.51"/><path d="M920,-233L1171,-234L1485,-251Z" fill="#add9de" stroke="#add9de" stroke-width="1.51"/><path d="M386,-259L920,-233L1485,-251Z" fill="#bce4d7" stroke="#bce4d7" stroke-width="1.51"/><path d="M1491,1304L1066,1344L1780,1331Z" fill="#2770a7" stroke="#2770a7" stroke-width="1.51"/><path d="M1780,1331L1066,1344L1928,1345Z" fill="#1c66a1" stroke="#1c66a1" stroke-width="1.51"/><path d="M1485,-251L1794,-170L1981,-178Z" fill="#94b4cd" stroke="#94b4cd" stroke-width="1.51"/><path d="M1959,-77L1958,112L2076,135Z" fill="#819db4" stroke="#819db4" stroke-width="1.51"/><path d="M1980,710L2080,863L2096,645Z" fill="#347fb1" stroke="#347fb1" stroke-width="1.51"/><path d="M2047,366L2104,540L2114,228Z" fill="#648da3" stroke="#648da3" stroke-width="1.51"/><path d="M1947,948L1926,1154L2115,1145Z" fill="#1365a5" stroke="#1365a5" stroke-width="1.51"/><path d="M1926,1154L1928,1345L2115,1145Z" fill="#0a599c" stroke="#0a599c" stroke-width="1.51"/><path d="M1959,-77L2076,135L2121,-94Z" fill="#839ab3" stroke="#839ab3" stroke-width="1.51"/><path d="M2076,135L2114,228L2121,-94Z" fill="#7d95aa" stroke="#7d95aa" stroke-width="1.51"/><path d="M1485,-251L1981,-178L2122,-207Z" fill="#92adcb" stroke="#92adcb" stroke-width="1.51"/><path d="M1981,-178L2121,-94L2122,-207Z" fill="#899cb8" stroke="#899cb8" stroke-width="1.51"/><path d="M1947,948L2115,1145L2127,947Z" fill="#1966a4" stroke="#1966a4" stroke-width="1.51"/><path d="M2096,645L2080,863L2127,947Z" fill="#2c75aa" stroke="#2c75aa" stroke-width="1.51"/><path d="M2104,540L2096,645L2127,947Z" fill="#397dac" stroke="#397dac" stroke-width="1.51"/><path d="M2114,228L2104,540L2127,947Z" fill="#4b84a7" stroke="#4b84a7" stroke-width="1.51"/><path d="M2121,-94L2114,228L2127,947Z" fill="#668ca0" stroke="#668ca0" stroke-width="1.51"/><path d="M2115,1145L1928,1345L2135,1341Z" fill="#094f91" stroke="#094f91" stroke-width="1.51"/><path d="M2127,947L2115,1145L2135,1341Z" fill="#0c5799" stroke="#0c5799" stroke-width="1.51"/><path d="M1980,710L1989,855L2080,863Z" fill="#2d7cb1" stroke="#2d7cb1" stroke-width="1.51"/><path d="M2047,366L1925,485L2104,540Z" fill="#5b8faa" stroke="#5b8faa" stroke-width="1.51"/><path d="M1969,277L2047,366L2114,228Z" fill="#6f94a6" stroke="#6f94a6" stroke-width="1.51"/><path d="M2080,863L1947,948L2127,947Z" fill="#226fa8" stroke="#226fa8" stroke-width="1.51"/><path d="M1981,-178L1959,-77L2121,-94Z" fill="#889fbb" stroke="#889fbb" stroke-width="1.51"/><path d="M2076,135L1969,277L2114,228Z" fill="#7595a8" stroke="#7595a8" stroke-width="1.51"/><path d="M1485,-251L1603,-185L1794,-170Z" fill="#98bcd1" stroke="#98bcd1" stroke-width="1.51"/><path d="M1989,855L1947,948L2080,863Z" fill="#2675ad" stroke="#2675ad" stroke-width="1.51"/><path d="M1925,485L1980,710L2096,645Z" fill="#488ab1" stroke="#488ab1" stroke-width="1.51"/><path d="M1925,485L2096,645L2104,540Z" fill="#4e8aac" stroke="#4e8aac" stroke-width="1.51"/><path d="M1918,411L1925,485L2047,366Z" fill="#6295ad" stroke="#6295ad" stroke-width="1.51"/><path d="M1958,112L1969,277L2076,135Z" fill="#7a9bae" stroke="#7a9bae" stroke-width="1.51"/><path d="M1925,485L1835,534L1980,710Z" fill="#4d93b6" stroke="#4d93b6" stroke-width="1.51"/><path d="M1969,277L1918,411L2047,366Z" fill="#6a97aa" stroke="#6a97aa" stroke-width="1.51"/><path d="M1786,1090L1926,1154L1947,948Z" fill="#156eae" stroke="#156eae" stroke-width="1.51"/><path d="M1799,118L1958,112L1959,-77Z" fill="#84a5ba" stroke="#84a5ba" stroke-width="1.51"/><path d="M1958,112L1834,252L1969,277Z" fill="#789fb2" stroke="#789fb2" stroke-width="1.51"/><path d="M1835,534L1805,694L1980,710Z" fill="#4591bb" stroke="#4591bb" stroke-width="1.51"/><path d="M1980,710L1825,812L1989,855Z" fill="#3083b8" stroke="#3083b8" stroke-width="1.51"/><path d="M1825,812L1947,948L1989,855Z" fill="#287db4" stroke="#287db4" stroke-width="1.51"/><path d="M1773,-103L1799,118L1959,-77Z" fill="#89aac2" stroke="#89aac2" stroke-width="1.51"/><path d="M1838,379L1918,411L1969,277Z" fill="#6b9baf" stroke="#6b9baf" stroke-width="1.51"/><path d="M1805,694L1825,812L1980,710Z" fill="#368dbf" stroke="#368dbf" stroke-width="1.51"/><path d="M1794,-170L1959,-77L1981,-178Z" fill="#8da8c3" stroke="#8da8c3" stroke-width="1.51"/><path d="M1926,1154L1780,1331L1928,1345Z" fill="#095b9e" stroke="#095b9e" stroke-width="1.51"/><path d="M1799,118L1834,252L1958,112Z" fill="#7fa5b8" stroke="#7fa5b8" stroke-width="1.51"/><path d="M1834,252L1838,379L1969,277Z" fill="#729fb1" stroke="#729fb1" stroke-width="1.51"/><path d="M1755,946L1786,1090L1947,948Z" fill="#1c78b4" stroke="#1c78b4" stroke-width="1.51"/><path d="M1794,-170L1773,-103L1959,-77Z" fill="#8dacc7" stroke="#8dacc7" stroke-width="1.51"/><path d="M1825,812L1755,946L1947,948Z" fill="#257fb8" stroke="#257fb8" stroke-width="1.51"/><path d="M1918,411L1838,379L1925,485Z" fill="#639ab3" stroke="#639ab3" stroke-width="1.51"/><path d="M1838,379L1835,534L1925,485Z" fill="#5e9bb6" stroke="#5e9bb6" stroke-width="1.51"/><path d="M1786,1090L1780,1331L1926,1154Z" fill="#0c66a9" stroke="#0c66a9" stroke-width="1.51"/><path d="M1685,1276L1491,1304L1780,1331Z" fill="#1966a3" stroke="#1966a3" stroke-width="1.51"/><path d="M1685,1276L1780,1331L1786,1090Z" fill="#1367a7" stroke="#1367a7" stroke-width="1.51"/><path d="M1773,-103L1636,-48L1799,118Z" fill="#8bb1c4" stroke="#8bb1c4" stroke-width="1.51"/><path d="M1799,118L1611,279L1834,252Z" fill="#7dabba" stroke="#7dabba" stroke-width="1.51"/><path d="M1625,423L1671,567L1835,534Z" fill="#5ca3bc" stroke="#5ca3bc" stroke-width="1.51"/><path d="M1671,567L1805,694L1835,534Z" fill="#4e9bbd" stroke="#4e9bbd" stroke-width="1.51"/><path d="M1834,252L1611,279L1838,379Z" fill="#74a8b6" stroke="#74a8b6" stroke-width="1.51"/><path d="M1611,279L1625,423L1838,379Z" fill="#70aab8" stroke="#70aab8" stroke-width="1.51"/><path d="M1625,423L1835,534L1838,379Z" fill="#63a2b8" stroke="#63a2b8" stroke-width="1.51"/><path d="M1805,694L1636,744L1825,812Z" fill="#3792c3" stroke="#3792c3" stroke-width="1.51"/><path d="M1636,744L1755,946L1825,812Z" fill="#318cbf" stroke="#318cbf" stroke-width="1.51"/><path d="M1636,744L1593,882L1755,946Z" fill="#318fc0" stroke="#318fc0" stroke-width="1.51"/><path d="M1593,882L1632,940L1755,946Z" fill="#2a89bd" stroke="#2a89bd" stroke-width="1.51"/><path d="M1602,1096L1685,1276L1786,1090Z" fill="#1772b1" stroke="#1772b1" stroke-width="1.51"/><path d="M1636,-48L1599,121L1799,118Z" fill="#8ab3c3" stroke="#8ab3c3" stroke-width="1.51"/><path d="M1599,121L1611,279L1799,118Z" fill="#83b2bd" stroke="#83b2bd" stroke-width="1.51"/><path d="M1671,567L1636,744L1805,694Z" fill="#469bc1" stroke="#469bc1" stroke-width="1.51"/><path d="M1755,946L1602,1096L1786,1090Z" fill="#1f7ab6" stroke="#1f7ab6" stroke-width="1.51"/><path d="M1632,940L1602,1096L1755,946Z" fill="#2582b9" stroke="#2582b9" stroke-width="1.51"/><path d="M1603,-185L1773,-103L1794,-170Z" fill="#93b5cc" stroke="#93b5cc" stroke-width="1.51"/><path d="M1603,-185L1636,-48L1773,-103Z" fill="#92b7cb" stroke="#92b7cb" stroke-width="1.51"/><path d="M386,-259L594,-214L920,-233Z" fill="#ceecd0" stroke="#ceecd0" stroke-width="1.51"/><path d="M1335,1259L1066,1344L1491,1304Z" fill="#317baf" stroke="#317baf" stroke-width="1.51"/><path d="M1452,1178L1491,1304L1602,1096Z" fill="#2279b3" stroke="#2279b3" stroke-width="1.51"/><path d="M1511,517L1429,661L1636,744Z" fill="#50a8c6" stroke="#50a8c6" stroke-width="1.51"/><path d="M1511,517L1636,744L1671,567Z" fill="#51a4c2" stroke="#51a4c2" stroke-width="1.51"/><path d="M1625,423L1511,517L1671,567Z" fill="#5faabf" stroke="#5faabf" stroke-width="1.51"/><path d="M1602,1096L1491,1304L1685,1276Z" fill="#1d71ad" stroke="#1d71ad" stroke-width="1.51"/><path d="M1599,121L1501,190L1611,279Z" fill="#83b7bf" stroke="#83b7bf" stroke-width="1.51"/><path d="M1611,279L1462,357L1625,423Z" fill="#74b2bb" stroke="#74b2bb" stroke-width="1.51"/><path d="M1442,980L1602,1096L1632,940Z" fill="#2887bb" stroke="#2887bb" stroke-width="1.51"/><path d="M1456,821L1593,882L1636,744Z" fill="#3899c5" stroke="#3899c5" stroke-width="1.51"/><path d="M1429,661L1456,821L1636,744Z" fill="#41a3cb" stroke="#41a3cb" stroke-width="1.51"/><path d="M1456,66L1599,121L1636,-48Z" fill="#8ebcc7" stroke="#8ebcc7" stroke-width="1.51"/><path d="M1505,-108L1456,66L1636,-48Z" fill="#92bfcc" stroke="#92bfcc" stroke-width="1.51"/><path d="M1603,-185L1505,-108L1636,-48Z" fill="#95bdcf" stroke="#95bdcf" stroke-width="1.51"/><path d="M1593,882L1442,980L1632,940Z" fill="#2e8ebf" stroke="#2e8ebf" stroke-width="1.51"/><path d="M1462,357L1511,517L1625,423Z" fill="#6bb1bf" stroke="#6bb1bf" stroke-width="1.51"/><path d="M1501,190L1462,357L1611,279Z" fill="#7db7be" stroke="#7db7be" stroke-width="1.51"/><path d="M1442,980L1452,1178L1602,1096Z" fill="#2884ba" stroke="#2884ba" stroke-width="1.51"/><path d="M1485,-251L1505,-108L1603,-185Z" fill="#9ac2d3" stroke="#9ac2d3" stroke-width="1.51"/><path d="M1456,66L1501,190L1599,121Z" fill="#8cbdc4" stroke="#8cbdc4" stroke-width="1.51"/><path d="M1456,821L1442,980L1593,882Z" fill="#3595c3" stroke="#3595c3" stroke-width="1.51"/><path d="M1442,980L1339,1030L1452,1178Z" fill="#308cbe" stroke="#308cbe" stroke-width="1.51"/><path d="M1339,1030L1321,1085L1452,1178Z" fill="#308bbe" stroke="#308bbe" stroke-width="1.51"/><path d="M1171,-234L1299,-163L1485,-251Z" fill="#a5d1dc" stroke="#a5d1dc" stroke-width="1.51"/><path d="M1342,336L1462,357L1501,190Z" fill="#7fbdc0" stroke="#7fbdc0" stroke-width="1.51"/><path d="M1320,196L1342,336L1501,190Z" fill="#86c2c4" stroke="#86c2c4" stroke-width="1.51"/><path d="M1290,-27L1456,66L1505,-108Z" fill="#97c7cf" stroke="#97c7cf" stroke-width="1.51"/><path d="M1485,-251L1299,-163L1505,-108Z" fill="#9fc9d6" stroke="#9fc9d6" stroke-width="1.51"/><path d="M1462,357L1382,521L1511,517Z" fill="#6ab5c3" stroke="#6ab5c3" stroke-width="1.51"/><path d="M1382,521L1429,661L1511,517Z" fill="#5cb2c6" stroke="#5cb2c6" stroke-width="1.51"/><path d="M1429,661L1370,806L1456,821Z" fill="#45a7cd" stroke="#45a7cd" stroke-width="1.51"/><path d="M1452,1178L1335,1259L1491,1304Z" fill="#2979b0" stroke="#2979b0" stroke-width="1.51"/><path d="M1456,66L1320,196L1501,190Z" fill="#8dc2c6" stroke="#8dc2c6" stroke-width="1.51"/><path d="M1299,-163L1290,-27L1505,-108Z" fill="#9dccd5" stroke="#9dccd5" stroke-width="1.51"/><path d="M1305,130L1320,196L1456,66Z" fill="#92c8c9" stroke="#92c8c9" stroke-width="1.51"/><path d="M1370,806L1442,980L1456,821Z" fill="#3c9dc8" stroke="#3c9dc8" stroke-width="1.51"/><path d="M1342,336L1382,521L1462,357Z" fill="#75bbc3" stroke="#75bbc3" stroke-width="1.51"/><path d="M1138,1275L1066,1344L1335,1259Z" fill="#3d82af" stroke="#3d82af" stroke-width="1.51"/><path d="M1306,672L1370,806L1429,661Z" fill="#4daece" stroke="#4daece" stroke-width="1.51"/><path d="M1370,806L1339,1030L1442,980Z" fill="#3899c4" stroke="#3899c4" stroke-width="1.51"/><path d="M1290,-27L1305,130L1456,66Z" fill="#96cace" stroke="#96cace" stroke-width="1.51"/><path d="M1321,1085L1335,1259L1452,1178Z" fill="#2e84ba" stroke="#2e84ba" stroke-width="1.51"/><path d="M1382,521L1306,672L1429,661Z" fill="#59b3cb" stroke="#59b3cb" stroke-width="1.51"/><path d="M1321,1085L1208,1135L1335,1259Z" fill="#338bbf" stroke="#338bbf" stroke-width="1.51"/><path d="M1132,873L1174,965L1370,806Z" fill="#48a7cb" stroke="#48a7cb" stroke-width="1.51"/><path d="M1174,965L1339,1030L1370,806Z" fill="#3d9ec8" stroke="#3d9ec8" stroke-width="1.51"/><path d="M1220,522L1306,672L1382,521Z" fill="#62bacb" stroke="#62bacb" stroke-width="1.51"/><path d="M1342,336L1213,389L1382,521Z" fill="#77c1c5" stroke="#77c1c5" stroke-width="1.51"/><path d="M1213,389L1220,522L1382,521Z" fill="#70c1c9" stroke="#70c1c9" stroke-width="1.51"/><path d="M1306,672L1186,685L1370,806Z" fill="#50b2d1" stroke="#50b2d1" stroke-width="1.51"/><path d="M1186,685L1132,873L1370,806Z" fill="#4eb0d1" stroke="#4eb0d1" stroke-width="1.51"/><path d="M1320,196L1187,240L1342,336Z" fill="#89c9c7" stroke="#89c9c7" stroke-width="1.51"/><path d="M1187,240L1213,389L1342,336Z" fill="#84c9c5" stroke="#84c9c5" stroke-width="1.51"/><path d="M1290,-27L1154,71L1305,130Z" fill="#9ad1d0" stroke="#9ad1d0" stroke-width="1.51"/><path d="M1174,965L1321,1085L1339,1030Z" fill="#3a98c5" stroke="#3a98c5" stroke-width="1.51"/><path d="M1208,1135L1138,1275L1335,1259Z" fill="#3887b7" stroke="#3887b7" stroke-width="1.51"/><path d="M1187,-26L1154,71L1290,-27Z" fill="#9fd3d2" stroke="#9fd3d2" stroke-width="1.51"/><path d="M1187,-26L1290,-27L1299,-163Z" fill="#a0d3d7" stroke="#a0d3d7" stroke-width="1.51"/><path d="M1220,522L1186,685L1306,672Z" fill="#5fbbce" stroke="#5fbbce" stroke-width="1.51"/><path d="M1305,130L1187,240L1320,196Z" fill="#90ccca" stroke="#90ccca" stroke-width="1.51"/><path d="M1174,965L1208,1135L1321,1085Z" fill="#3c96c3" stroke="#3c96c3" stroke-width="1.51"/><path d="M1154,71L1187,240L1305,130Z" fill="#97d0cb" stroke="#97d0cb" stroke-width="1.51"/><path d="M1171,-234L1187,-26L1299,-163Z" fill="#a6d6d9" stroke="#a6d6d9" stroke-width="1.51"/><path d="M920,-233L1032,-190L1171,-234Z" fill="#b4dfd8" stroke="#b4dfd8" stroke-width="1.51"/><path d="M1171,-234L1048,-91L1187,-26Z" fill="#a9d9d6" stroke="#a9d9d6" stroke-width="1.51"/><path d="M1154,71L1052,211L1187,240Z" fill="#99d3c7" stroke="#99d3c7" stroke-width="1.51"/><path d="M1031,1177L1138,1275L1208,1135Z" fill="#438eb8" stroke="#438eb8" stroke-width="1.51"/><path d="M1174,965L1046,955L1208,1135Z" fill="#489ec3" stroke="#489ec3" stroke-width="1.51"/><path d="M1046,955L1031,1177L1208,1135Z" fill="#4a9abf" stroke="#4a9abf" stroke-width="1.51"/><path d="M1187,240L1085,365L1213,389Z" fill="#88ccc2" stroke="#88ccc2" stroke-width="1.51"/><path d="M1062,636L1186,685L1220,522Z" fill="#67bfcc" stroke="#67bfcc" stroke-width="1.51"/><path d="M1029,508L1062,636L1220,522Z" fill="#70c5c8" stroke="#70c5c8" stroke-width="1.51"/><path d="M1213,389L1085,365L1220,522Z" fill="#7dc7c6" stroke="#7dc7c6" stroke-width="1.51"/><path d="M1085,365L1029,508L1220,522Z" fill="#7bc8c6" stroke="#7bc8c6" stroke-width="1.51"/><path d="M1032,-190L1048,-91L1171,-234Z" fill="#afdcd7" stroke="#afdcd7" stroke-width="1.51"/><path d="M1023,843L1132,873L1186,685Z" fill="#58b4cd" stroke="#58b4cd" stroke-width="1.51"/><path d="M1062,636L1023,843L1186,685Z" fill="#60bbce" stroke="#60bbce" stroke-width="1.51"/><path d="M1086,37L1154,71L1187,-26Z" fill="#a1d6cf" stroke="#a1d6cf" stroke-width="1.51"/><path d="M1048,-91L1086,37L1187,-26Z" fill="#a6d8d0" stroke="#a6d8d0" stroke-width="1.51"/><path d="M1052,211L1085,365L1187,240Z" fill="#91d0c3" stroke="#91d0c3" stroke-width="1.51"/><path d="M1132,873L1046,955L1174,965Z" fill="#4ea7c6" stroke="#4ea7c6" stroke-width="1.51"/><path d="M1086,37L1052,211L1154,71Z" fill="#a0d6c9" stroke="#a0d6c9" stroke-width="1.51"/><path d="M1031,1177L1066,1344L1138,1275Z" fill="#4788b0" stroke="#4788b0" stroke-width="1.51"/><path d="M1023,843L1046,955L1132,873Z" fill="#55adc7" stroke="#55adc7" stroke-width="1.51"/><path d="M911,1163L1031,1177L1046,955Z" fill="#529cbc" stroke="#529cbc" stroke-width="1.51"/><path d="M862,1008L911,1163L1046,955Z" fill="#59a3bd" stroke="#59a3bd" stroke-width="1.51"/><path d="M897,644L1023,843L1062,636Z" fill="#69c0cb" stroke="#69c0cb" stroke-width="1.51"/><path d="M929,1274L777,1328L1066,1344Z" fill="#5388a7" stroke="#5388a7" stroke-width="1.51"/><path d="M1031,1177L929,1274L1066,1344Z" fill="#4c8baf" stroke="#4c8baf" stroke-width="1.51"/><path d="M872,438L1029,508L1085,365Z" fill="#86cec2" stroke="#86cec2" stroke-width="1.51"/><path d="M1052,211L848,270L1085,365Z" fill="#96d5c0" stroke="#96d5c0" stroke-width="1.51"/><path d="M848,270L872,438L1085,365Z" fill="#92d4bd" stroke="#92d4bd" stroke-width="1.51"/><path d="M1048,-91L880,-85L1086,37Z" fill="#acddcf" stroke="#acddcf" stroke-width="1.51"/><path d="M880,-85L849,97L1086,37Z" fill="#addeca" stroke="#addeca" stroke-width="1.51"/><path d="M849,97L1052,211L1086,37Z" fill="#a5dac6" stroke="#a5dac6" stroke-width="1.51"/><path d="M-164,-196L-13,-185L386,-259Z" fill="#e7f6e1" stroke="#e7f6e1" stroke-width="1.51"/><path d="M897,644L842,801L1023,843Z" fill="#6bbfca" stroke="#6bbfca" stroke-width="1.51"/><path d="M1029,508L897,644L1062,636Z" fill="#74c7c7" stroke="#74c7c7" stroke-width="1.51"/><path d="M1032,-190L880,-85L1048,-91Z" fill="#b1e0d2" stroke="#b1e0d2" stroke-width="1.51"/><path d="M849,97L848,270L1052,211Z" fill="#a3dac1" stroke="#a3dac1" stroke-width="1.51"/><path d="M869,522L897,644L1029,508Z" fill="#7cccc4" stroke="#7cccc4" stroke-width="1.51"/><path d="M1023,843L862,1008L1046,955Z" fill="#5aacc3" stroke="#5aacc3" stroke-width="1.51"/><path d="M842,801L862,1008L1023,843Z" fill="#64b4c4" stroke="#64b4c4" stroke-width="1.51"/><path d="M872,438L869,522L1029,508Z" fill="#84cfc1" stroke="#84cfc1" stroke-width="1.51"/><path d="M911,1163L929,1274L1031,1177Z" fill="#5294b4" stroke="#5294b4" stroke-width="1.51"/><path d="M920,-233L880,-85L1032,-190Z" fill="#b6e2d3" stroke="#b6e2d3" stroke-width="1.51"/><path d="M842,801L786,968L862,1008Z" fill="#69b1c0" stroke="#69b1c0" stroke-width="1.51"/><path d="M758,43L849,97L880,-85Z" fill="#b4e1c7" stroke="#b4e1c7" stroke-width="1.51"/><path d="M762,715L842,801L897,644Z" fill="#76c4c8" stroke="#76c4c8" stroke-width="1.51"/><path d="M862,1008L754,1119L911,1163Z" fill="#61a1b8" stroke="#61a1b8" stroke-width="1.51"/><path d="M699,-164L880,-85L920,-233Z" fill="#bde5d0" stroke="#bde5d0" stroke-width="1.51"/><path d="M594,-214L699,-164L920,-233Z" fill="#c6e9d0" stroke="#c6e9d0" stroke-width="1.51"/><path d="M911,1163L777,1328L929,1274Z" fill="#5990ad" stroke="#5990ad" stroke-width="1.51"/><path d="M754,1119L777,1328L911,1163Z" fill="#6097b1" stroke="#6097b1" stroke-width="1.51"/><path d="M723,504L762,715L869,522Z" fill="#87cec1" stroke="#87cec1" stroke-width="1.51"/><path d="M848,270L683,398L872,438Z" fill="#9bd7ba" stroke="#9bd7ba" stroke-width="1.51"/><path d="M699,-164L738,-70L880,-85Z" fill="#bee6cc" stroke="#bee6cc" stroke-width="1.51"/><path d="M738,-70L758,43L880,-85Z" fill="#bae3c9" stroke="#bae3c9" stroke-width="1.51"/><path d="M869,522L762,715L897,644Z" fill="#7ecac4" stroke="#7ecac4" stroke-width="1.51"/><path d="M764,803L786,968L842,801Z" fill="#70b9c3" stroke="#70b9c3" stroke-width="1.51"/><path d="M685,192L848,270L849,97Z" fill="#acdebe" stroke="#acdebe" stroke-width="1.51"/><path d="M723,504L869,522L872,438Z" fill="#8dd2bf" stroke="#8dd2bf" stroke-width="1.51"/><path d="M786,968L754,1119L862,1008Z" fill="#67a8ba" stroke="#67a8ba" stroke-width="1.51"/><path d="M683,398L723,504L872,438Z" fill="#96d5bc" stroke="#96d5bc" stroke-width="1.51"/><path d="M762,715L764,803L842,801Z" fill="#76c2c6" stroke="#76c2c6" stroke-width="1.51"/><path d="M685,192L683,398L848,270Z" fill="#a7dcb9" stroke="#a7dcb9" stroke-width="1.51"/><path d="M758,43L685,192L849,97Z" fill="#b4e2c0" stroke="#b4e2c0" stroke-width="1.51"/><path d="M185,1284L-40,1333L386,1314Z" fill="#8198b0" stroke="#8198b0" stroke-width="1.51"/><path d="M723,504L631,683L762,715Z" fill="#88cdc1" stroke="#88cdc1" stroke-width="1.51"/><path d="M754,1119L622,1188L777,1328Z" fill="#6899ae" stroke="#6899ae" stroke-width="1.51"/><path d="M542,1010L754,1119L786,968Z" fill="#70abb8" stroke="#70abb8" stroke-width="1.51"/><path d="M764,803L542,886L786,968Z" fill="#77b9bf" stroke="#77b9bf" stroke-width="1.51"/><path d="M542,886L542,1010L786,968Z" fill="#79b4bc" stroke="#79b4bc" stroke-width="1.51"/><path d="M582,268L683,398L685,192Z" fill="#addfb7" stroke="#addfb7" stroke-width="1.51"/><path d="M612,57L685,192L758,43Z" fill="#bae4bf" stroke="#bae4bf" stroke-width="1.51"/><path d="M622,1188L559,1309L777,1328Z" fill="#6c94a6" stroke="#6c94a6" stroke-width="1.51"/><path d="M542,1010L622,1188L754,1119Z" fill="#73a5b5" stroke="#73a5b5" stroke-width="1.51"/><path d="M738,-70L612,57L758,43Z" fill="#bde6c4" stroke="#bde6c4" stroke-width="1.51"/><path d="M762,715L631,683L764,803Z" fill="#7fc7c5" stroke="#7fc7c5" stroke-width="1.51"/><path d="M631,683L542,886L764,803Z" fill="#81c3c3" stroke="#81c3c3" stroke-width="1.51"/><path d="M542,575L631,683L723,504Z" fill="#91d2bf" stroke="#91d2bf" stroke-width="1.51"/><path d="M699,-164L571,-70L738,-70Z" fill="#c5e8c9" stroke="#c5e8c9" stroke-width="1.51"/><path d="M571,-70L612,57L738,-70Z" fill="#c3e8c6" stroke="#c3e8c6" stroke-width="1.51"/><path d="M610,442L542,575L723,504Z" fill="#99d7bd" stroke="#99d7bd" stroke-width="1.51"/><path d="M683,398L610,442L723,504Z" fill="#9cd8ba" stroke="#9cd8ba" stroke-width="1.51"/><path d="M594,-214L571,-70L699,-164Z" fill="#cbebcc" stroke="#cbebcc" stroke-width="1.51"/><path d="M582,268L610,442L683,398Z" fill="#a7dcb8" stroke="#a7dcb8" stroke-width="1.51"/><path d="M612,57L582,268L685,192Z" fill="#b8e4bc" stroke="#b8e4bc" stroke-width="1.51"/><path d="M-13,-185L120,-178L386,-259Z" fill="#e4f5dd" stroke="#e4f5dd" stroke-width="1.51"/><path d="M582,268L400,354L610,442Z" fill="#aedfb9" stroke="#aedfb9" stroke-width="1.51"/><path d="M426,208L582,268L612,57Z" fill="#bde6be" stroke="#bde6be" stroke-width="1.51"/><path d="M400,100L426,208L612,57Z" fill="#c6e8c2" stroke="#c6e8c2" stroke-width="1.51"/><path d="M542,1010L429,1183L622,1188Z" fill="#79a6b7" stroke="#79a6b7" stroke-width="1.51"/><path d="M431,719L542,886L631,683Z" fill="#8ac9c7" stroke="#8ac9c7" stroke-width="1.51"/><path d="M542,575L431,719L631,683Z" fill="#92d0c5" stroke="#92d0c5" stroke-width="1.51"/><path d="M470,519L542,575L610,442Z" fill="#9dd8bf" stroke="#9dd8bf" stroke-width="1.51"/><path d="M429,1183L559,1309L622,1188Z" fill="#749cae" stroke="#749cae" stroke-width="1.51"/><path d="M400,354L470,519L610,442Z" fill="#a8dcbe" stroke="#a8dcbe" stroke-width="1.51"/><path d="M571,-70L400,100L612,57Z" fill="#c7e9c5" stroke="#c7e9c5" stroke-width="1.51"/><path d="M418,-81L571,-70L594,-214Z" fill="#cfeccd" stroke="#cfeccd" stroke-width="1.51"/><path d="M418,-81L400,100L571,-70Z" fill="#cdecc9" stroke="#cdecc9" stroke-width="1.51"/><path d="M386,-259L418,-81L594,-214Z" fill="#d6efd2" stroke="#d6efd2" stroke-width="1.51"/><path d="M431,719L411,859L542,886Z" fill="#8bc5c6" stroke="#8bc5c6" stroke-width="1.51"/><path d="M426,208L400,354L582,268Z" fill="#b9e4bc" stroke="#b9e4bc" stroke-width="1.51"/><path d="M408,945L542,1010L542,886Z" fill="#82b8c0" stroke="#82b8c0" stroke-width="1.51"/><path d="M429,1183L386,1314L559,1309Z" fill="#7798ac" stroke="#7798ac" stroke-width="1.51"/><path d="M408,945L429,1183L542,1010Z" fill="#80afbc" stroke="#80afbc" stroke-width="1.51"/><path d="M470,519L431,719L542,575Z" fill="#9ad4c4" stroke="#9ad4c4" stroke-width="1.51"/><path d="M411,859L408,945L542,886Z" fill="#87bdc3" stroke="#87bdc3" stroke-width="1.51"/><path d="M120,-178L247,-181L386,-259Z" fill="#e1f4da" stroke="#e1f4da" stroke-width="1.51"/><path d="M281,1276L185,1284L386,1314Z" fill="#7f99af" stroke="#7f99af" stroke-width="1.51"/><path d="M408,945L313,981L429,1183Z" fill="#85b2bf" stroke="#85b2bf" stroke-width="1.51"/><path d="M313,981L285,1154L429,1183Z" fill="#85abbd" stroke="#85abbd" stroke-width="1.51"/><path d="M230,533L262,730L431,719Z" fill="#9fd4cb" stroke="#9fd4cb" stroke-width="1.51"/><path d="M230,533L431,719L470,519Z" fill="#a1d8c6" stroke="#a1d8c6" stroke-width="1.51"/><path d="M334,425L230,533L470,519Z" fill="#abddc4" stroke="#abddc4" stroke-width="1.51"/><path d="M400,354L334,425L470,519Z" fill="#aedfc0" stroke="#aedfc0" stroke-width="1.51"/><path d="M247,-181L300,-90L386,-259Z" fill="#ddf2d7" stroke="#ddf2d7" stroke-width="1.51"/><path d="M300,-90L251,56L400,100Z" fill="#d3eecc" stroke="#d3eecc" stroke-width="1.51"/><path d="M300,-90L400,100L418,-81Z" fill="#d3eecc" stroke="#d3eecc" stroke-width="1.51"/><path d="M386,-259L300,-90L418,-81Z" fill="#d9f1d3" stroke="#d9f1d3" stroke-width="1.51"/><path d="M288,281L400,354L426,208Z" fill="#bee6be" stroke="#bee6be" stroke-width="1.51"/><path d="M281,1276L386,1314L429,1183Z" fill="#7d9caf" stroke="#7d9caf" stroke-width="1.51"/><path d="M285,1154L281,1276L429,1183Z" fill="#81a2b6" stroke="#81a2b6" stroke-width="1.51"/><path d="M339,856L411,859L431,719Z" fill="#90c7c8" stroke="#90c7c8" stroke-width="1.51"/><path d="M262,730L339,856L431,719Z" fill="#96cccc" stroke="#96cccc" stroke-width="1.51"/><path d="M339,856L408,945L411,859Z" fill="#8cc0c5" stroke="#8cc0c5" stroke-width="1.51"/><path d="M400,100L288,281L426,208Z" fill="#c6e8c2" stroke="#c6e8c2" stroke-width="1.51"/><path d="M251,56L288,281L400,100Z" fill="#ccebc6" stroke="#ccebc6" stroke-width="1.51"/><path d="M339,856L313,981L408,945Z" fill="#8bbdc4" stroke="#8bbdc4" stroke-width="1.51"/><path d="M288,281L334,425L400,354Z" fill="#b9e4be" stroke="#b9e4be" stroke-width="1.51"/><path d="M288,281L103,410L334,425Z" fill="#bae4c3" stroke="#bae4c3" stroke-width="1.51"/><path d="M262,730L101,853L339,856Z" fill="#96c9ce" stroke="#96c9ce" stroke-width="1.51"/><path d="M120,951L313,981L339,856Z" fill="#8fbec7" stroke="#8fbec7" stroke-width="1.51"/><path d="M101,853L120,951L339,856Z" fill="#94c3cc" stroke="#94c3cc" stroke-width="1.51"/><path d="M161,736L101,853L262,730Z" fill="#9bced2" stroke="#9bced2" stroke-width="1.51"/><path d="M103,410L230,533L334,425Z" fill="#b3e1c6" stroke="#b3e1c6" stroke-width="1.51"/><path d="M103,410L127,493L230,533Z" fill="#b3e1ca" stroke="#b3e1ca" stroke-width="1.51"/><path d="M106,69L102,273L251,56Z" fill="#d3eecc" stroke="#d3eecc" stroke-width="1.51"/><path d="M230,533L161,736L262,730Z" fill="#a2d6ce" stroke="#a2d6ce" stroke-width="1.51"/><path d="M120,951L145,1174L285,1154Z" fill="#8aafc3" stroke="#8aafc3" stroke-width="1.51"/><path d="M251,56L102,273L288,281Z" fill="#cbebc7" stroke="#cbebc7" stroke-width="1.51"/><path d="M120,951L285,1154L313,981Z" fill="#8bb5c3" stroke="#8bb5c3" stroke-width="1.51"/><path d="M185,1284L281,1276L285,1154Z" fill="#829fb5" stroke="#829fb5" stroke-width="1.51"/><path d="M145,1174L185,1284L285,1154Z" fill="#85a3ba" stroke="#85a3ba" stroke-width="1.51"/><path d="M102,273L103,410L288,281Z" fill="#c2e7c4" stroke="#c2e7c4" stroke-width="1.51"/><path d="M247,-181L120,-178L300,-90Z" fill="#dff3d8" stroke="#dff3d8" stroke-width="1.51"/><path d="M120,-178L83,-18L300,-90Z" fill="#def2d8" stroke="#def2d8" stroke-width="1.51"/><path d="M83,-18L251,56L300,-90Z" fill="#d8f0d2" stroke="#d8f0d2" stroke-width="1.51"/><path d="M83,-18L106,69L251,56Z" fill="#d8f0d2" stroke="#d8f0d2" stroke-width="1.51"/><path d="M127,493L22,669L161,736Z" fill="#a7d9d2" stroke="#a7d9d2" stroke-width="1.51"/><path d="M127,493L161,736L230,533Z" fill="#a9dbce" stroke="#a9dbce" stroke-width="1.51"/><path d="M120,951L2,987L145,1174Z" fill="#8fb5c9" stroke="#8fb5c9" stroke-width="1.51"/><path d="M145,1174L-40,1333L185,1284Z" fill="#869eb8" stroke="#869eb8" stroke-width="1.51"/><path d="M-5,95L102,273L106,69Z" fill="#d4efcf" stroke="#d4efcf" stroke-width="1.51"/><path d="M2,987L-32,1175L145,1174Z" fill="#8eafc7" stroke="#8eafc7" stroke-width="1.51"/><path d="M-32,1175L-40,1333L145,1174Z" fill="#8aa3be" stroke="#8aa3be" stroke-width="1.51"/><path d="M35,817L101,853L161,736Z" fill="#9bccd3" stroke="#9bccd3" stroke-width="1.51"/><path d="M22,669L35,817L161,736Z" fill="#a0d3d7" stroke="#a0d3d7" stroke-width="1.51"/><path d="M-13,-185L83,-18L120,-178Z" fill="#e3f4dd" stroke="#e3f4dd" stroke-width="1.51"/><path d="M-54,562L22,669L127,493Z" fill="#afded2" stroke="#afded2" stroke-width="1.51"/><path d="M-5,95L-49,249L102,273Z" fill="#d1edce" stroke="#d1edce" stroke-width="1.51"/><path d="M102,273L-36,340L103,410Z" fill="#c4e8c8" stroke="#c4e8c8" stroke-width="1.51"/><path d="M101,853L2,987L120,951Z" fill="#94c0ce" stroke="#94c0ce" stroke-width="1.51"/><path d="M103,410L-54,562L127,493Z" fill="#b5e2cd" stroke="#b5e2cd" stroke-width="1.51"/><path d="M-13,-185L-50,-41L83,-18Z" fill="#e2f4dd" stroke="#e2f4dd" stroke-width="1.51"/><path d="M35,817L2,987L101,853Z" fill="#98c4d1" stroke="#98c4d1" stroke-width="1.51"/><path d="M-36,340L-54,562L103,410Z" fill="#bce5ce" stroke="#bce5ce" stroke-width="1.51"/><path d="M83,-18L-5,95L106,69Z" fill="#daf1d4" stroke="#daf1d4" stroke-width="1.51"/><path d="M-49,249L-36,340L102,273Z" fill="#caebcc" stroke="#caebcc" stroke-width="1.51"/><path d="M-50,-41L-5,95L83,-18Z" fill="#def2d8" stroke="#def2d8" stroke-width="1.51"/><path d="M-118,368L-147,504L-54,562Z" fill="#bde5d3" stroke="#bde5d3" stroke-width="1.51"/><path d="M-118,368L-54,562L-36,340Z" fill="#c1e7d0" stroke="#c1e7d0" stroke-width="1.51"/><path d="M-130,1129L-32,1175L2,987Z" fill="#92b2cb" stroke="#92b2cb" stroke-width="1.51"/><path d="M-195,894L2,987L35,817Z" fill="#9bc5d3" stroke="#9bc5d3" stroke-width="1.51"/><path d="M22,669L-192,659L35,817Z" fill="#a7d6da" stroke="#a7d6da" stroke-width="1.51"/><path d="M-192,659L-195,894L35,817Z" fill="#a5d1db" stroke="#a5d1db" stroke-width="1.51"/><path d="M-54,562L-192,659L22,669Z" fill="#aedcd8" stroke="#aedcd8" stroke-width="1.51"/><path d="M-191,1234L-40,1333L-32,1175Z" fill="#8ca2bf" stroke="#8ca2bf" stroke-width="1.51"/><path d="M-164,-196L-50,-41L-13,-185Z" fill="#e9f7e2" stroke="#e9f7e2" stroke-width="1.51"/><path d="M-157,103L-49,249L-5,95Z" fill="#d9f1d3" stroke="#d9f1d3" stroke-width="1.51"/><path d="M-50,-41L-157,103L-5,95Z" fill="#dff3d8" stroke="#dff3d8" stroke-width="1.51"/><path d="M-200,946L-130,1129L2,987Z" fill="#97bad0" stroke="#97bad0" stroke-width="1.51"/><path d="M-195,894L-200,946L2,987Z" fill="#9cc2d4" stroke="#9cc2d4" stroke-width="1.51"/><path d="M-157,103L-168,235L-49,249Z" fill="#d7f0d4" stroke="#d7f0d4" stroke-width="1.51"/><path d="M-164,-196L-220,-104L-50,-41Z" fill="#eaf7e4" stroke="#eaf7e4" stroke-width="1.51"/><path d="M-49,249L-118,368L-36,340Z" fill="#cbebcd" stroke="#cbebcd" stroke-width="1.51"/><path d="M-130,1129L-191,1234L-32,1175Z" fill="#91aac8" stroke="#91aac8" stroke-width="1.51"/><path d="M-168,235L-118,368L-49,249Z" fill="#cfecd0" stroke="#cfecd0" stroke-width="1.51"/><path d="M-220,-104L-157,103L-50,-41Z" fill="#e5f5de" stroke="#e5f5de" stroke-width="1.51"/><path d="M-147,504L-192,659L-54,562Z" fill="#b5e1d7" stroke="#b5e1d7" stroke-width="1.51"/><path d="M-168,235L-147,504L-118,368Z" fill="#c9ead0" stroke="#c9ead0" stroke-width="1.51"/><path d="M-200,946L-191,1234L-130,1129Z" fill="#96b3cf" stroke="#96b3cf" stroke-width="1.51"/><path d="M-168,235L-192,659L-147,504Z" fill="#c1e6d5" stroke="#c1e6d5" stroke-width="1.51"/><path d="M-220,-104L-168,235L-157,103Z" fill="#e2f4db" stroke="#e2f4db" stroke-width="1.51"/><path d="M-220,-104L-192,659L-168,235Z" fill="#d4efd3" stroke="#d4efd3" stroke-width="1.51"/><path d="M-200,946L-195,894L-192,659Z" fill="#a5cedc" stroke="#a5cedc" stroke-width="1.51"/><path d="M-220,-104L-200,946L-192,659Z" fill="#bee5d7" stroke="#bee5d7" stroke-width="1.51"/></svg>