<svg xmlns="http://www.w3.org/2000/svg" width="1920" height="1080"><path d="M382,-227L692,-223L902,-238Z" fill="#d6d6d6" stroke="#d6d6d6" stroke-width="1.51"/><path d="M845,1326L457,1326L1017,1334Z" fill="#d3d3d3" stroke="#d3d3d3" stroke-width="1.51"/><path d="M457,1326L92,1332L1017,1334Z" fill="#d2d2d2" stroke="#d2d2d2" stroke-width="1.51"/><path d="M1177,1322L1017,1334L1386,1331Z" fill="#d3d3d3" stroke="#d3d3d3" stroke-width="1.51"/><path d="M382,-227L902,-238L1914,-262Z" fill="#d4d4d4" stroke="#d4d4d4" stroke-width="1.51"/><path d="M902,-238L1377,-216L1914,-262Z" fill="#d4d4d4" stroke="#d4d4d4" stroke-width="1.51"/><path d="M1479,-204L1728,-197L1914,-262Z" fill="#d7d7d7" stroke="#d7d7d7" stroke-width="1.51"/><path d="M1377,-216L1479,-204L1914,-262Z" fill="#d6d6d6" stroke="#d6d6d6" stroke-width="1.51"/><path d="M1778,1301L1386,1331L2089,1305Z" fill="#d5d5d5" stroke="#d5d5d5" stroke-width="1.51"/><path d="M1884,1291L1778,1301L2089,1305Z" fill="#c4c4c4" stroke="#c4c4c4" stroke-width="1.51"/><path d="M2080,-112L1898,-77L2106,126Z" fill="#dbdbdb" stroke="#dbdbdb" stroke-width="1.51"/><path d="M1898,-77L1910,123L2106,126Z" fill="#e4e4e4" stroke="#e4e4e4" stroke-width="1.51"/><path d="M1990,372L2079,415L2106,218Z" fill="#d9d9d9" stroke="#d9d9d9" stroke-width="1.51"/><path d="M2080,-112L2106,126L2116,-261Z" fill="#c6c6c6" stroke="#c6c6c6" stroke-width="1.51"/><path d="M1916,968L1970,1153L2133,992Z" fill="#dfdfdf" stroke="#dfdfdf" stroke-width="1.51"/><path d="M2116,843L1941,896L2133,992Z" fill="#d8d8d8" stroke="#d8d8d8" stroke-width="1.51"/><path d="M2116,-261L2106,126L2137,656Z" fill="#d1d1d1" stroke="#d1d1d1" stroke-width="1.51"/><path d="M2106,126L2106,218L2137,656Z" fill="#d1d1d1" stroke="#d1d1d1" stroke-width="1.51"/><path d="M2079,415L2034,491L2137,656Z" fill="#d5d5d5" stroke="#d5d5d5" stroke-width="1.51"/><path d="M1984,664L2116,843L2137,656Z" fill="#d6d6d6" stroke="#d6d6d6" stroke-width="1.51"/><path d="M2034,491L1984,664L2137,656Z" fill="#d9d9d9" stroke="#d9d9d9" stroke-width="1.51"/><path d="M2106,218L2079,415L2137,656Z" fill="#d3d3d3" stroke="#d3d3d3" stroke-width="1.51"/><path d="M2116,843L2133,992L2137,656Z" fill="#d0d0d0" stroke="#d0d0d0" stroke-width="1.51"/><path d="M2133,992L1970,1153L2137,1168Z" fill="#d3d3d3" stroke="#d3d3d3" stroke-width="1.51"/><path d="M1970,1153L2089,1305L2137,1168Z" fill="#c2c2c2" stroke="#c2c2c2" stroke-width="1.51"/><path d="M2137,656L2133,992L2137,1168Z" fill="#cfcfcf" stroke="#cfcfcf" stroke-width="1.51"/><path d="M1941,896L1916,968L2133,992Z" fill="#e1e1e1" stroke="#e1e1e1" stroke-width="1.51"/><path d="M1909,227L1990,372L2106,218Z" fill="#e0e0e0" stroke="#e0e0e0" stroke-width="1.51"/><path d="M2106,126L1910,123L2106,218Z" fill="#dbdbdb" stroke="#dbdbdb" stroke-width="1.51"/><path d="M1914,-262L2080,-112L2116,-261Z" fill="#b7b7b7" stroke="#b7b7b7" stroke-width="1.51"/><path d="M1984,664L1941,896L2116,843Z" fill="#dedede" stroke="#dedede" stroke-width="1.51"/><path d="M1910,123L1909,227L2106,218Z" fill="#e3e3e3" stroke="#e3e3e3" stroke-width="1.51"/><path d="M1914,-262L1898,-77L2080,-112Z" fill="#cbcbcb" stroke="#cbcbcb" stroke-width="1.51"/><path d="M1970,1153L1884,1291L2089,1305Z" fill="#c5c5c5" stroke="#c5c5c5" stroke-width="1.51"/><path d="M1990,372L2034,491L2079,415Z" fill="#dbdbdb" stroke="#dbdbdb" stroke-width="1.51"/><path d="M1836,696L1941,896L1984,664Z" fill="#eaeaea" stroke="#eaeaea" stroke-width="1.51"/><path d="M1990,372L1920,491L2034,491Z" fill="#e3e3e3" stroke="#e3e3e3" stroke-width="1.51"/><path d="M1920,491L1984,664L2034,491Z" fill="#e3e3e3" stroke="#e3e3e3" stroke-width="1.51"/><path d="M1898,-77L1833,-27L1910,123Z" fill="#efefef" stroke="#efefef" stroke-width="1.51"/><path d="M1836,696L1793,834L1941,896Z" fill="#f2f2f2" stroke="#f2f2f2" stroke-width="1.51"/><path d="M1916,968L1805,1168L1970,1153Z" fill="#ececec" stroke="#ececec" stroke-width="1.51"/><path d="M1920,491L1836,696L1984,664Z" fill="#ebebeb" stroke="#ebebeb" stroke-width="1.51"/><path d="M1801,283L1920,491L1990,372Z" fill="#ececec" stroke="#ececec" stroke-width="1.51"/><path d="M1909,227L1801,283L1990,372Z" fill="#ededed" stroke="#ededed" stroke-width="1.51"/><path d="M1801,283L1743,361L1920,491Z" fill="#f7f7f7" stroke="#f7f7f7" stroke-width="1.51"/><path d="M1805,1168L1884,1291L1970,1153Z" fill="#d9d9d9" stroke="#d9d9d9" stroke-width="1.51"/><path d="M1728,-197L1898,-77L1914,-262Z" fill="#d5d5d5" stroke="#d5d5d5" stroke-width="1.51"/><path d="M1770,987L1805,1168L1916,968Z" fill="#f6f6f6" stroke="#f6f6f6" stroke-width="1.51"/><path d="M1734,532L1836,696L1920,491Z" fill="#f6f6f6" stroke="#f6f6f6" stroke-width="1.51"/><path d="M1793,834L1916,968L1941,896Z" fill="#efefef" stroke="#efefef" stroke-width="1.51"/><path d="M-151,-167L-37,-168L382,-227Z" fill="#d1d1d1" stroke="#d1d1d1" stroke-width="1.51"/><path d="M1484,1271L1386,1331L1778,1301Z" fill="#d7d7d7" stroke="#d7d7d7" stroke-width="1.51"/><path d="M1745,89L1801,283L1909,227Z" fill="#f7f7f7" stroke="#f7f7f7" stroke-width="1.51"/><path d="M1745,89L1909,227L1910,123Z" fill="#f3f3f3" stroke="#f3f3f3" stroke-width="1.51"/><path d="M1833,-27L1745,89L1910,123Z" fill="#f6f6f6" stroke="#f6f6f6" stroke-width="1.51"/><path d="M1793,834L1770,987L1916,968Z" fill="#f6f6f6" stroke="#f6f6f6" stroke-width="1.51"/><path d="M1743,361L1734,532L1920,491Z" fill="#fafafa" stroke="#fafafa" stroke-width="1.51"/><path d="M1605,1248L1484,1271L1778,1301Z" fill="#dddddd" stroke="#dddddd" stroke-width="1.51"/><path d="M1728,-197L1833,-27L1898,-77Z" fill="#e6e6e6" stroke="#e6e6e6" stroke-width="1.51"/><path d="M1805,1168L1778,1301L1884,1291Z" fill="#d8d8d8" stroke="#d8d8d8" stroke-width="1.51"/><path d="M902,-238L1074,-190L1377,-216Z" fill="#d9d9d9" stroke="#d9d9d9" stroke-width="1.51"/><path d="M1676,884L1770,987L1793,834Z" fill="#ffffff" stroke="#ffffff" stroke-width="1.51"/><path d="M1728,-197L1651,-166L1833,-27Z" fill="#e8e8e8" stroke="#e8e8e8" stroke-width="1.51"/><path d="M1651,-166L1617,-13L1833,-27Z" fill="#f4f4f4" stroke="#f4f4f4" stroke-width="1.51"/><path d="M1643,690L1793,834L1836,696Z" fill="#ffffff" stroke="#ffffff" stroke-width="1.51"/><path d="M1734,532L1643,690L1836,696Z" fill="#ffffff" stroke="#ffffff" stroke-width="1.51"/><path d="M1770,987L1650,1190L1805,1168Z" fill="#fafafa" stroke="#fafafa" stroke-width="1.51"/><path d="M1617,-13L1745,89L1833,-27Z" fill="#ffffff" stroke="#ffffff" stroke-width="1.51"/><path d="M1479,-204L1651,-166L1728,-197Z" fill="#dedede" stroke="#dedede" stroke-width="1.51"/><path d="M1675,975L1650,1190L1770,987Z" fill="#ffffff" stroke="#ffffff" stroke-width="1.51"/><path d="M1643,690L1676,884L1793,834Z" fill="#ffffff" stroke="#ffffff" stroke-width="1.51"/><path d="M1745,89L1599,269L1801,283Z" fill="#ffffff" stroke="#ffffff" stroke-width="1.51"/><path d="M1650,1190L1778,1301L1805,1168Z" fill="#e7e7e7" stroke="#e7e7e7" stroke-width="1.51"/><path d="M1599,269L1743,361L1801,283Z" fill="#ffffff" stroke="#ffffff" stroke-width="1.51"/><path d="M1676,884L1675,975L1770,987Z" fill="#ffffff" stroke="#ffffff" stroke-width="1.51"/><path d="M1596,385L1734,532L1743,361Z" fill="#ffffff" stroke="#ffffff" stroke-width="1.51"/><path d="M1650,1190L1605,1248L1778,1301Z" fill="#e2e2e2" stroke="#e2e2e2" stroke-width="1.51"/><path d="M1580,505L1643,690L1734,532Z" fill="#ffffff" stroke="#ffffff" stroke-width="1.51"/><path d="M1596,385L1580,505L1734,532Z" fill="#ffffff" stroke="#ffffff" stroke-width="1.51"/><path d="M1599,269L1596,385L1743,361Z" fill="#ffffff" stroke="#ffffff" stroke-width="1.51"/><path d="M1617,-13L1604,47L1745,89Z" fill="#ffffff" stroke="#ffffff" stroke-width="1.51"/><path d="M1604,47L1599,269L1745,89Z" fill="#ffffff" stroke="#ffffff" stroke-width="1.51"/><path d="M1462,1164L1650,1190L1675,975Z" fill="#fbfbfb" stroke="#fbfbfb" stroke-width="1.51"/><path d="M1449,937L1462,1164L1675,975Z" fill="#ffffff" stroke="#ffffff" stroke-width="1.51"/><path d="M1536,733L1449,875L1676,884Z" fill="#ffffff" stroke="#ffffff" stroke-width="1.51"/><path d="M1449,937L1675,975L1676,884Z" fill="#ffffff" stroke="#ffffff" stroke-width="1.51"/><path d="M1449,875L1449,937L1676,884Z" fill="#ffffff" stroke="#ffffff" stroke-width="1.51"/><path d="M1643,690L1536,733L1676,884Z" fill="#ffffff" stroke="#ffffff" stroke-width="1.51"/><path d="M1456,80L1599,269L1604,47Z" fill="#ffffff" stroke="#ffffff" stroke-width="1.51"/><path d="M1580,505L1515,511L1643,690Z" fill="#ffffff" stroke="#ffffff" stroke-width="1.51"/><path d="M1515,511L1536,733L1643,690Z" fill="#ffffff" stroke="#ffffff" stroke-width="1.51"/><path d="M1462,1164L1605,1248L1650,1190Z" fill="#eaeaea" stroke="#eaeaea" stroke-width="1.51"/><path d="M1472,-26L1617,-13L1651,-166Z" fill="#f4f4f4" stroke="#f4f4f4" stroke-width="1.51"/><path d="M1479,-204L1472,-26L1651,-166Z" fill="#e8e8e8" stroke="#e8e8e8" stroke-width="1.51"/><path d="M1515,511L1580,505L1596,385Z" fill="#ffffff" stroke="#ffffff" stroke-width="1.51"/><path d="M1509,295L1596,385L1599,269Z" fill="#ffffff" stroke="#ffffff" stroke-width="1.51"/><path d="M1456,80L1509,295L1599,269Z" fill="#ffffff" stroke="#ffffff" stroke-width="1.51"/><path d="M1462,1164L1484,1271L1605,1248Z" fill="#e5e5e5" stroke="#e5e5e5" stroke-width="1.51"/><path d="M1472,-26L1604,47L1617,-13Z" fill="#ffffff" stroke="#ffffff" stroke-width="1.51"/><path d="M1472,-26L1456,80L1604,47Z" fill="#ffffff" stroke="#ffffff" stroke-width="1.51"/><path d="M1449,333L1515,511L1596,385Z" fill="#ffffff" stroke="#ffffff" stroke-width="1.51"/><path d="M1509,295L1449,333L1596,385Z" fill="#ffffff" stroke="#ffffff" stroke-width="1.51"/><path d="M1515,511L1314,693L1536,733Z" fill="#ffffff" stroke="#ffffff" stroke-width="1.51"/><path d="M1449,937L1329,970L1462,1164Z" fill="#ffffff" stroke="#ffffff" stroke-width="1.51"/><path d="M1381,-45L1472,-26L1479,-204Z" fill="#efefef" stroke="#efefef" stroke-width="1.51"/><path d="M1456,80L1282,199L1509,295Z" fill="#ffffff" stroke="#ffffff" stroke-width="1.51"/><path d="M1282,199L1449,333L1509,295Z" fill="#ffffff" stroke="#ffffff" stroke-width="1.51"/><path d="M1316,502L1314,693L1515,511Z" fill="#ffffff" stroke="#ffffff" stroke-width="1.51"/><path d="M1381,856L1449,875L1536,733Z" fill="#ffffff" stroke="#ffffff" stroke-width="1.51"/><path d="M1314,693L1381,856L1536,733Z" fill="#ffffff" stroke="#ffffff" stroke-width="1.51"/><path d="M1329,970L1359,1175L1462,1164Z" fill="#fcfcfc" stroke="#fcfcfc" stroke-width="1.51"/><path d="M1449,333L1316,502L1515,511Z" fill="#ffffff" stroke="#ffffff" stroke-width="1.51"/><path d="M1377,-216L1381,-45L1479,-204Z" fill="#e4e4e4" stroke="#e4e4e4" stroke-width="1.51"/><path d="M1310,350L1316,502L1449,333Z" fill="#ffffff" stroke="#ffffff" stroke-width="1.51"/><path d="M1308,84L1282,199L1456,80Z" fill="#ffffff" stroke="#ffffff" stroke-width="1.51"/><path d="M1381,-45L1456,80L1472,-26Z" fill="#ffffff" stroke="#ffffff" stroke-width="1.51"/><path d="M1462,1164L1359,1175L1484,1271Z" fill="#eaeaea" stroke="#eaeaea" stroke-width="1.51"/><path d="M1359,1175L1386,1331L1484,1271Z" fill="#dfdfdf" stroke="#dfdfdf" stroke-width="1.51"/><path d="M1282,199L1310,350L1449,333Z" fill="#ffffff" stroke="#ffffff" stroke-width="1.51"/><path d="M1381,-45L1308,84L1456,80Z" fill="#ffffff" stroke="#ffffff" stroke-width="1.51"/><path d="M1449,875L1381,856L1449,937Z" fill="#ffffff" stroke="#ffffff" stroke-width="1.51"/><path d="M1381,856L1329,970L1449,937Z" fill="#ffffff" stroke="#ffffff" stroke-width="1.51"/><path d="M1228,534L1314,693L1316,502Z" fill="#ffffff" stroke="#ffffff" stroke-width="1.51"/><path d="M1329,970L1194,1104L1359,1175Z" fill="#ffffff" stroke="#ffffff" stroke-width="1.51"/><path d="M1074,-190L1133,-159L1377,-216Z" fill="#dedede" stroke="#dedede" stroke-width="1.51"/><path d="M1314,693L1185,827L1381,856Z" fill="#ffffff" stroke="#ffffff" stroke-width="1.51"/><path d="M1377,-216L1234,-96L1381,-45Z" fill="#eaeaea" stroke="#eaeaea" stroke-width="1.51"/><path d="M1234,-96L1308,84L1381,-45Z" fill="#fdfdfd" stroke="#fdfdfd" stroke-width="1.51"/><path d="M1359,1175L1177,1322L1386,1331Z" fill="#dcdcdc" stroke="#dcdcdc" stroke-width="1.51"/><path d="M1185,827L1329,970L1381,856Z" fill="#ffffff" stroke="#ffffff" stroke-width="1.51"/><path d="M1310,350L1227,414L1316,502Z" fill="#ffffff" stroke="#ffffff" stroke-width="1.51"/><path d="M1133,-159L1234,-96L1377,-216Z" fill="#e3e3e3" stroke="#e3e3e3" stroke-width="1.51"/><path d="M1194,1104L1177,1322L1359,1175Z" fill="#eaeaea" stroke="#eaeaea" stroke-width="1.51"/><path d="M1234,-96L1173,101L1308,84Z" fill="#ffffff" stroke="#ffffff" stroke-width="1.51"/><path d="M1282,199L1156,212L1310,350Z" fill="#ffffff" stroke="#ffffff" stroke-width="1.51"/><path d="M1228,534L1144,691L1314,693Z" fill="#ffffff" stroke="#ffffff" stroke-width="1.51"/><path d="M1129,1007L1194,1104L1329,970Z" fill="#ffffff" stroke="#ffffff" stroke-width="1.51"/><path d="M1185,827L1129,1007L1329,970Z" fill="#ffffff" stroke="#ffffff" stroke-width="1.51"/><path d="M1173,101L1282,199L1308,84Z" fill="#ffffff" stroke="#ffffff" stroke-width="1.51"/><path d="M1156,212L1227,414L1310,350Z" fill="#ffffff" stroke="#ffffff" stroke-width="1.51"/><path d="M1144,691L1185,827L1314,693Z" fill="#ffffff" stroke="#ffffff" stroke-width="1.51"/><path d="M1227,414L1228,534L1316,502Z" fill="#ffffff" stroke="#ffffff" stroke-width="1.51"/><path d="M1173,101L1156,212L1282,199Z" fill="#ffffff" stroke="#ffffff" stroke-width="1.51"/><path d="M981,1138L1177,1322L1194,1104Z" fill="#ececec" stroke="#ececec" stroke-width="1.51"/><path d="M1156,212L981,438L1227,414Z" fill="#ffffff" stroke="#ffffff" stroke-width="1.51"/><path d="M981,438L1000,527L1227,414Z" fill="#ffffff" stroke="#ffffff" stroke-width="1.51"/><path d="M1227,414L1000,527L1228,534Z" fill="#ffffff" stroke="#ffffff" stroke-width="1.51"/><path d="M1000,527L1144,691L1228,534Z" fill="#ffffff" stroke="#ffffff" stroke-width="1.51"/><path d="M1003,-24L1173,101L1234,-96Z" fill="#ffffff" stroke="#ffffff" stroke-width="1.51"/><path d="M1133,-159L1003,-24L1234,-96Z" fill="#efefef" stroke="#efefef" stroke-width="1.51"/><path d="M1062,192L981,438L1156,212Z" fill="#ffffff" stroke="#ffffff" stroke-width="1.51"/><path d="M1003,-24L1040,126L1173,101Z" fill="#ffffff" stroke="#ffffff" stroke-width="1.51"/><path d="M981,1138L1017,1334L1177,1322Z" fill="#dedede" stroke="#dedede" stroke-width="1.51"/><path d="M993,813L1129,1007L1185,827Z" fill="#ffffff" stroke="#ffffff" stroke-width="1.51"/><path d="M1144,691L1021,737L1185,827Z" fill="#ffffff" stroke="#ffffff" stroke-width="1.51"/><path d="M1129,1007L1052,1039L1194,1104Z" fill="#ffffff" stroke="#ffffff" stroke-width="1.51"/><path d="M1052,1039L981,1138L1194,1104Z" fill="#fefefe" stroke="#fefefe" stroke-width="1.51"/><path d="M1062,192L1156,212L1173,101Z" fill="#ffffff" stroke="#ffffff" stroke-width="1.51"/><path d="M1021,737L993,813L1185,827Z" fill="#ffffff" stroke="#ffffff" stroke-width="1.51"/><path d="M1040,126L1062,192L1173,101Z" fill="#ffffff" stroke="#ffffff" stroke-width="1.51"/><path d="M993,813L1052,1039L1129,1007Z" fill="#ffffff" stroke="#ffffff" stroke-width="1.51"/><path d="M1074,-190L1003,-24L1133,-159Z" fill="#e9e9e9" stroke="#e9e9e9" stroke-width="1.51"/><path d="M1000,527L1021,737L1144,691Z" fill="#ffffff" stroke="#ffffff" stroke-width="1.51"/><path d="M595,1290L457,1326L845,1326Z" fill="#d5d5d5" stroke="#d5d5d5" stroke-width="1.51"/><path d="M993,813L914,888L1052,1039Z" fill="#ffffff" stroke="#ffffff" stroke-width="1.51"/><path d="M902,-238L878,-49L1003,-24Z" fill="#ededed" stroke="#ededed" stroke-width="1.51"/><path d="M1000,527L860,697L1021,737Z" fill="#ffffff" stroke="#ffffff" stroke-width="1.51"/><path d="M1003,-24L930,98L1040,126Z" fill="#ffffff" stroke="#ffffff" stroke-width="1.51"/><path d="M898,407L981,438L1062,192Z" fill="#ffffff" stroke="#ffffff" stroke-width="1.51"/><path d="M846,217L898,407L1062,192Z" fill="#ffffff" stroke="#ffffff" stroke-width="1.51"/><path d="M902,-238L1003,-24L1074,-190Z" fill="#e5e5e5" stroke="#e5e5e5" stroke-width="1.51"/><path d="M382,-227L613,-206L692,-223Z" fill="#d8d8d8" stroke="#d8d8d8" stroke-width="1.51"/><path d="M718,1287L595,1290L845,1326Z" fill="#d7d7d7" stroke="#d7d7d7" stroke-width="1.51"/><path d="M924,519L860,697L1000,527Z" fill="#ffffff" stroke="#ffffff" stroke-width="1.51"/><path d="M914,888L870,936L1052,1039Z" fill="#ffffff" stroke="#ffffff" stroke-width="1.51"/><path d="M1040,126L930,98L1062,192Z" fill="#ffffff" stroke="#ffffff" stroke-width="1.51"/><path d="M930,98L846,217L1062,192Z" fill="#ffffff" stroke="#ffffff" stroke-width="1.51"/><path d="M981,1138L884,1143L1017,1334Z" fill="#e9e9e9" stroke="#e9e9e9" stroke-width="1.51"/><path d="M884,1143L845,1326L1017,1334Z" fill="#dedede" stroke="#dedede" stroke-width="1.51"/><path d="M870,936L981,1138L1052,1039Z" fill="#ffffff" stroke="#ffffff" stroke-width="1.51"/><path d="M870,936L884,1143L981,1138Z" fill="#ffffff" stroke="#ffffff" stroke-width="1.51"/><path d="M860,697L993,813L1021,737Z" fill="#ffffff" stroke="#ffffff" stroke-width="1.51"/><path d="M981,438L924,519L1000,527Z" fill="#ffffff" stroke="#ffffff" stroke-width="1.51"/><path d="M878,-49L930,98L1003,-24Z" fill="#ffffff" stroke="#ffffff" stroke-width="1.51"/><path d="M860,697L914,888L993,813Z" fill="#ffffff" stroke="#ffffff" stroke-width="1.51"/><path d="M898,407L924,519L981,438Z" fill="#ffffff" stroke="#ffffff" stroke-width="1.51"/><path d="M870,936L771,1006L884,1143Z" fill="#ffffff" stroke="#ffffff" stroke-width="1.51"/><path d="M846,217L759,406L898,407Z" fill="#ffffff" stroke="#ffffff" stroke-width="1.51"/><path d="M764,-84L878,-49L902,-238Z" fill="#eaeaea" stroke="#eaeaea" stroke-width="1.51"/><path d="M860,697L753,885L914,888Z" fill="#ffffff" stroke="#ffffff" stroke-width="1.51"/><path d="M689,570L860,697L924,519Z" fill="#ffffff" stroke="#ffffff" stroke-width="1.51"/><path d="M898,407L759,406L924,519Z" fill="#ffffff" stroke="#ffffff" stroke-width="1.51"/><path d="M878,-49L702,107L930,98Z" fill="#ffffff" stroke="#ffffff" stroke-width="1.51"/><path d="M702,107L846,217L930,98Z" fill="#ffffff" stroke="#ffffff" stroke-width="1.51"/><path d="M759,406L689,570L924,519Z" fill="#ffffff" stroke="#ffffff" stroke-width="1.51"/><path d="M718,1287L845,1326L884,1143Z" fill="#e1e1e1" stroke="#e1e1e1" stroke-width="1.51"/><path d="M753,885L870,936L914,888Z" fill="#ffffff" stroke="#ffffff" stroke-width="1.51"/><path d="M764,-84L702,107L878,-49Z" fill="#ffffff" stroke="#ffffff" stroke-width="1.51"/><path d="M721,1133L718,1287L884,1143Z" fill="#ececec" stroke="#ececec" stroke-width="1.51"/><path d="M692,-223L764,-84L902,-238Z" fill="#dfdfdf" stroke="#dfdfdf" stroke-width="1.51"/><path d="M771,1006L721,1133L884,1143Z" fill="#fefefe" stroke="#fefefe" stroke-width="1.51"/><path d="M685,718L753,885L860,697Z" fill="#ffffff" stroke="#ffffff" stroke-width="1.51"/><path d="M698,185L759,406L846,217Z" fill="#ffffff" stroke="#ffffff" stroke-width="1.51"/><path d="M702,107L698,185L846,217Z" fill="#ffffff" stroke="#ffffff" stroke-width="1.51"/><path d="M689,570L685,718L860,697Z" fill="#ffffff" stroke="#ffffff" stroke-width="1.51"/><path d="M753,885L771,1006L870,936Z" fill="#ffffff" stroke="#ffffff" stroke-width="1.51"/><path d="M576,515L689,570L759,406Z" fill="#ffffff" stroke="#ffffff" stroke-width="1.51"/><path d="M698,185L585,245L759,406Z" fill="#ffffff" stroke="#ffffff" stroke-width="1.51"/><path d="M585,245L548,362L759,406Z" fill="#ffffff" stroke="#ffffff" stroke-width="1.51"/><path d="M692,-223L603,-85L764,-84Z" fill="#e8e8e8" stroke="#e8e8e8" stroke-width="1.51"/><path d="M612,83L702,107L764,-84Z" fill="#ffffff" stroke="#ffffff" stroke-width="1.51"/><path d="M603,-85L612,83L764,-84Z" fill="#fbfbfb" stroke="#fbfbfb" stroke-width="1.51"/><path d="M608,1094L721,1133L771,1006Z" fill="#ffffff" stroke="#ffffff" stroke-width="1.51"/><path d="M753,885L572,1020L771,1006Z" fill="#ffffff" stroke="#ffffff" stroke-width="1.51"/><path d="M572,1020L608,1094L771,1006Z" fill="#ffffff" stroke="#ffffff" stroke-width="1.51"/><path d="M685,718L535,789L753,885Z" fill="#ffffff" stroke="#ffffff" stroke-width="1.51"/><path d="M235,1295L92,1332L457,1326Z" fill="#d5d5d5" stroke="#d5d5d5" stroke-width="1.51"/><path d="M548,362L576,515L759,406Z" fill="#ffffff" stroke="#ffffff" stroke-width="1.51"/><path d="M613,-206L603,-85L692,-223Z" fill="#e1e1e1" stroke="#e1e1e1" stroke-width="1.51"/><path d="M595,1290L718,1287L721,1133Z" fill="#e4e4e4" stroke="#e4e4e4" stroke-width="1.51"/><path d="M535,789L572,1020L753,885Z" fill="#ffffff" stroke="#ffffff" stroke-width="1.51"/><path d="M577,668L685,718L689,570Z" fill="#ffffff" stroke="#ffffff" stroke-width="1.51"/><path d="M608,1094L595,1290L721,1133Z" fill="#efefef" stroke="#efefef" stroke-width="1.51"/><path d="M612,83L698,185L702,107Z" fill="#ffffff" stroke="#ffffff" stroke-width="1.51"/><path d="M612,83L585,245L698,185Z" fill="#ffffff" stroke="#ffffff" stroke-width="1.51"/><path d="M-37,-168L245,-173L382,-227Z" fill="#dedede" stroke="#dedede" stroke-width="1.51"/><path d="M577,668L535,789L685,718Z" fill="#ffffff" stroke="#ffffff" stroke-width="1.51"/><path d="M576,515L577,668L689,570Z" fill="#ffffff" stroke="#ffffff" stroke-width="1.51"/><path d="M-37,-168L179,-159L245,-173Z" fill="#dedede" stroke="#dedede" stroke-width="1.51"/><path d="M535,789L427,857L572,1020Z" fill="#ffffff" stroke="#ffffff" stroke-width="1.51"/><path d="M548,362L458,423L576,515Z" fill="#ffffff" stroke="#ffffff" stroke-width="1.51"/><path d="M444,1092L457,1326L595,1290Z" fill="#e4e4e4" stroke="#e4e4e4" stroke-width="1.51"/><path d="M444,1092L595,1290L608,1094Z" fill="#f2f2f2" stroke="#f2f2f2" stroke-width="1.51"/><path d="M418,59L585,245L612,83Z" fill="#ffffff" stroke="#ffffff" stroke-width="1.51"/><path d="M603,-85L419,-6L612,83Z" fill="#ffffff" stroke="#ffffff" stroke-width="1.51"/><path d="M419,-6L418,59L612,83Z" fill="#ffffff" stroke="#ffffff" stroke-width="1.51"/><path d="M382,-227L603,-85L613,-206Z" fill="#e1e1e1" stroke="#e1e1e1" stroke-width="1.51"/><path d="M576,515L421,645L577,668Z" fill="#ffffff" stroke="#ffffff" stroke-width="1.51"/><path d="M382,-227L419,-6L603,-85Z" fill="#ededed" stroke="#ededed" stroke-width="1.51"/><path d="M572,1020L444,1092L608,1094Z" fill="#ffffff" stroke="#ffffff" stroke-width="1.51"/><path d="M402,567L421,645L576,515Z" fill="#ffffff" stroke="#ffffff" stroke-width="1.51"/><path d="M418,59L429,296L585,245Z" fill="#ffffff" stroke="#ffffff" stroke-width="1.51"/><path d="M427,857L386,984L572,1020Z" fill="#ffffff" stroke="#ffffff" stroke-width="1.51"/><path d="M429,296L548,362L585,245Z" fill="#ffffff" stroke="#ffffff" stroke-width="1.51"/><path d="M421,645L535,789L577,668Z" fill="#ffffff" stroke="#ffffff" stroke-width="1.51"/><path d="M382,-227L333,-108L419,-6Z" fill="#ebebeb" stroke="#ebebeb" stroke-width="1.51"/><path d="M458,423L402,567L576,515Z" fill="#ffffff" stroke="#ffffff" stroke-width="1.51"/><path d="M386,984L444,1092L572,1020Z" fill="#ffffff" stroke="#ffffff" stroke-width="1.51"/><path d="M429,296L458,423L548,362Z" fill="#ffffff" stroke="#ffffff" stroke-width="1.51"/><path d="M421,645L427,857L535,789Z" fill="#ffffff" stroke="#ffffff" stroke-width="1.51"/><path d="M288,81L307,270L418,59Z" fill="#ffffff" stroke="#ffffff" stroke-width="1.51"/><path d="M421,645L294,700L427,857Z" fill="#ffffff" stroke="#ffffff" stroke-width="1.51"/><path d="M294,700L309,856L427,857Z" fill="#ffffff" stroke="#ffffff" stroke-width="1.51"/><path d="M418,59L307,270L429,296Z" fill="#ffffff" stroke="#ffffff" stroke-width="1.51"/><path d="M240,1118L235,1295L444,1092Z" fill="#f0f0f0" stroke="#f0f0f0" stroke-width="1.51"/><path d="M444,1092L235,1295L457,1326Z" fill="#e3e3e3" stroke="#e3e3e3" stroke-width="1.51"/><path d="M429,296L302,349L458,423Z" fill="#ffffff" stroke="#ffffff" stroke-width="1.51"/><path d="M302,349L402,567L458,423Z" fill="#ffffff" stroke="#ffffff" stroke-width="1.51"/><path d="M309,856L386,984L427,857Z" fill="#ffffff" stroke="#ffffff" stroke-width="1.51"/><path d="M386,984L325,981L444,1092Z" fill="#ffffff" stroke="#ffffff" stroke-width="1.51"/><path d="M325,981L240,1118L444,1092Z" fill="#ffffff" stroke="#ffffff" stroke-width="1.51"/><path d="M309,856L325,981L386,984Z" fill="#ffffff" stroke="#ffffff" stroke-width="1.51"/><path d="M302,349L229,574L402,567Z" fill="#ffffff" stroke="#ffffff" stroke-width="1.51"/><path d="M307,270L302,349L429,296Z" fill="#ffffff" stroke="#ffffff" stroke-width="1.51"/><path d="M288,81L418,59L419,-6Z" fill="#ffffff" stroke="#ffffff" stroke-width="1.51"/><path d="M402,567L294,700L421,645Z" fill="#ffffff" stroke="#ffffff" stroke-width="1.51"/><path d="M333,-108L288,81L419,-6Z" fill="#ffffff" stroke="#ffffff" stroke-width="1.51"/><path d="M229,574L294,700L402,567Z" fill="#ffffff" stroke="#ffffff" stroke-width="1.51"/><path d="M245,-173L333,-108L382,-227Z" fill="#e1e1e1" stroke="#e1e1e1" stroke-width="1.51"/><path d="M179,1161L235,1295L240,1118Z" fill="#ececec" stroke="#ececec" stroke-width="1.51"/><path d="M179,-159L90,-56L288,81Z" fill="#f8f8f8" stroke="#f8f8f8" stroke-width="1.51"/><path d="M167,358L229,574L302,349Z" fill="#ffffff" stroke="#ffffff" stroke-width="1.51"/><path d="M288,81L158,109L307,270Z" fill="#ffffff" stroke="#ffffff" stroke-width="1.51"/><path d="M158,109L128,199L307,270Z" fill="#ffffff" stroke="#ffffff" stroke-width="1.51"/><path d="M309,856L144,877L325,981Z" fill="#ffffff" stroke="#ffffff" stroke-width="1.51"/><path d="M179,-159L288,81L333,-108Z" fill="#f5f5f5" stroke="#f5f5f5" stroke-width="1.51"/><path d="M245,-173L179,-159L333,-108Z" fill="#e5e5e5" stroke="#e5e5e5" stroke-width="1.51"/><path d="M294,700L144,877L309,856Z" fill="#ffffff" stroke="#ffffff" stroke-width="1.51"/><path d="M92,984L240,1118L325,981Z" fill="#ffffff" stroke="#ffffff" stroke-width="1.51"/><path d="M144,877L92,984L325,981Z" fill="#ffffff" stroke="#ffffff" stroke-width="1.51"/><path d="M167,358L115,543L229,574Z" fill="#ffffff" stroke="#ffffff" stroke-width="1.51"/><path d="M90,-56L158,109L288,81Z" fill="#ffffff" stroke="#ffffff" stroke-width="1.51"/><path d="M120,679L144,877L294,700Z" fill="#ffffff" stroke="#ffffff" stroke-width="1.51"/><path d="M167,358L302,349L307,270Z" fill="#ffffff" stroke="#ffffff" stroke-width="1.51"/><path d="M128,199L167,358L307,270Z" fill="#ffffff" stroke="#ffffff" stroke-width="1.51"/><path d="M229,574L120,679L294,700Z" fill="#ffffff" stroke="#ffffff" stroke-width="1.51"/><path d="M92,984L179,1161L240,1118Z" fill="#ffffff" stroke="#ffffff" stroke-width="1.51"/><path d="M179,1161L92,1332L235,1295Z" fill="#dfdfdf" stroke="#dfdfdf" stroke-width="1.51"/><path d="M115,543L120,679L229,574Z" fill="#fefefe" stroke="#fefefe" stroke-width="1.51"/><path d="M27,1158L-2,1263L92,1332Z" fill="#d1d1d1" stroke="#d1d1d1" stroke-width="1.51"/><path d="M120,679L21,720L144,877Z" fill="#f6f6f6" stroke="#f6f6f6" stroke-width="1.51"/><path d="M90,-56L-9,85L158,109Z" fill="#f4f4f4" stroke="#f4f4f4" stroke-width="1.51"/><path d="M-24,518L115,543L167,358Z" fill="#f5f5f5" stroke="#f5f5f5" stroke-width="1.51"/><path d="M-41,350L-24,518L167,358Z" fill="#efefef" stroke="#efefef" stroke-width="1.51"/><path d="M128,199L37,227L167,358Z" fill="#f8f8f8" stroke="#f8f8f8" stroke-width="1.51"/><path d="M92,984L27,1158L179,1161Z" fill="#f5f5f5" stroke="#f5f5f5" stroke-width="1.51"/><path d="M27,1158L92,1332L179,1161Z" fill="#dfdfdf" stroke="#dfdfdf" stroke-width="1.51"/><path d="M-37,-168L90,-56L179,-159Z" fill="#dedede" stroke="#dedede" stroke-width="1.51"/><path d="M37,227L-41,350L167,358Z" fill="#f1f1f1" stroke="#f1f1f1" stroke-width="1.51"/><path d="M21,720L-43,855L144,877Z" fill="#efefef" stroke="#efefef" stroke-width="1.51"/><path d="M-9,85L128,199L158,109Z" fill="#f6f6f6" stroke="#f6f6f6" stroke-width="1.51"/><path d="M-9,85L37,227L128,199Z" fill="#f1f1f1" stroke="#f1f1f1" stroke-width="1.51"/><path d="M-3,956L92,984L144,877Z" fill="#f4f4f4" stroke="#f4f4f4" stroke-width="1.51"/><path d="M-43,855L-3,956L144,877Z" fill="#eeeeee" stroke="#eeeeee" stroke-width="1.51"/><path d="M-24,518L21,720L115,543Z" fill="#efefef" stroke="#efefef" stroke-width="1.51"/><path d="M115,543L21,720L120,679Z" fill="#f5f5f5" stroke="#f5f5f5" stroke-width="1.51"/><path d="M-2,1263L-213,1335L92,1332Z" fill="#bdbdbd" stroke="#bdbdbd" stroke-width="1.51"/><path d="M-3,956L27,1158L92,984Z" fill="#efefef" stroke="#efefef" stroke-width="1.51"/><path d="M-37,-168L-50,-96L90,-56Z" fill="#d8d8d8" stroke="#d8d8d8" stroke-width="1.51"/><path d="M-50,-96L-9,85L90,-56Z" fill="#e9e9e9" stroke="#e9e9e9" stroke-width="1.51"/><path d="M-188,572L-163,719L-24,518Z" fill="#dadada" stroke="#dadada" stroke-width="1.51"/><path d="M-50,-96L-129,-18L-9,85Z" fill="#e2e2e2" stroke="#e2e2e2" stroke-width="1.51"/><path d="M-24,518L-163,719L21,720Z" fill="#e3e3e3" stroke="#e3e3e3" stroke-width="1.51"/><path d="M-3,956L-161,998L27,1158Z" fill="#e4e4e4" stroke="#e4e4e4" stroke-width="1.51"/><path d="M-161,998L-202,1102L27,1158Z" fill="#dcdcdc" stroke="#dcdcdc" stroke-width="1.51"/><path d="M-9,85L-119,263L37,227Z" fill="#e6e6e6" stroke="#e6e6e6" stroke-width="1.51"/><path d="M-119,263L-41,350L37,227Z" fill="#e5e5e5" stroke="#e5e5e5" stroke-width="1.51"/><path d="M-160,801L-43,855L21,720Z" fill="#e3e3e3" stroke="#e3e3e3" stroke-width="1.51"/><path d="M-163,719L-160,801L21,720Z" fill="#dedede" stroke="#dedede" stroke-width="1.51"/><path d="M-202,1102L-2,1263L27,1158Z" fill="#d3d3d3" stroke="#d3d3d3" stroke-width="1.51"/><path d="M-41,350L-172,417L-24,518Z" fill="#e0e0e0" stroke="#e0e0e0" stroke-width="1.51"/><path d="M-129,-18L-144,52L-9,85Z" fill="#dedede" stroke="#dedede" stroke-width="1.51"/><path d="M-144,52L-119,263L-9,85Z" fill="#dfdfdf" stroke="#dfdfdf" stroke-width="1.51"/><path d="M-43,855L-161,998L-3,956Z" fill="#e2e2e2" stroke="#e2e2e2" stroke-width="1.51"/><path d="M-202,1102L-213,1335L-2,1263Z" fill="#bebebe" stroke="#bebebe" stroke-width="1.51"/><path d="M-172,417L-188,572L-24,518Z" fill="#dadada" stroke="#dadada" stroke-width="1.51"/><path d="M-160,801L-161,998L-43,855Z" fill="#dbdbdb" stroke="#dbdbdb" stroke-width="1.51"/><path d="M-151,-167L-50,-96L-37,-168Z" fill="#c7c7c7" stroke="#c7c7c7" stroke-width="1.51"/><path d="M-119,263L-172,417L-41,350Z" fill="#dcdcdc" stroke="#dcdcdc" stroke-width="1.51"/><path d="M-151,-167L-129,-18L-50,-96Z" fill="#cdcdcd" stroke="#cdcdcd" stroke-width="1.51"/><path d="M-144,52L-172,417L-119,263Z" fill="#d8d8d8" stroke="#d8d8d8" stroke-width="1.51"/><path d="M-151,-167L-144,52L-129,-18Z" fill="#d2d2d2" stroke="#d2d2d2" stroke-width="1.51"/><path d="M-151,-167L-172,417L-144,52Z" fill="#d6d6d6" stroke="#d6d6d6" stroke-width="1.51"/><path d="M-202,1102L-161,998L-160,801Z" fill="#d4d4d4" stroke="#d4d4d4" stroke-width="1.51"/><path d="M-188,572L-172,417L-151,-167Z" fill="#d5d5d5" stroke="#d5d5d5" stroke-width="1.51"/><path d="M-163,719L-188,572L-160,801Z" fill="#d5d5d5" stroke="#d5d5d5" stroke-width="1.51"/><path d="M-188,572L-202,1102L-160,801Z" fill="#d3d3d3" stroke="#d3d3d3" stroke-width="1.51"/><path d="M-213,1335L-202,1102L-188,572Z" fill="#d1d1d1" stroke="#d1d1d1" stroke-width="1.51"/></svg>